<mxfile host="65bd71144e">
    <diagram id="7x4r1--JwvtSmt2wwoD1" name="Page-1">
        <mxGraphModel dx="670" dy="590" grid="1" gridSize="10" guides="1" tooltips="1" connect="1" arrows="1" fold="1" page="1" pageScale="1" pageWidth="827" pageHeight="1169" math="0" shadow="0">
            <root>
                <mxCell id="0"/>
                <mxCell id="1" parent="0"/>
                <mxCell id="6" value="" style="rounded=1;whiteSpace=wrap;html=1;dashed=1;" vertex="1" parent="1">
                    <mxGeometry x="189" y="249" width="450" height="240" as="geometry"/>
                </mxCell>
                <mxCell id="3" value="Browser" style="rounded=0;whiteSpace=wrap;html=1;" vertex="1" parent="1">
                    <mxGeometry x="339" y="90" width="160" height="60" as="geometry"/>
                </mxCell>
                <mxCell id="4" value="Websock" style="endArrow=classic;html=1;exitX=0.25;exitY=1;exitDx=0;exitDy=0;startArrow=classic;startFill=1;entryX=0.75;entryY=0;entryDx=0;entryDy=0;" edge="1" parent="1" source="3" target="9">
                    <mxGeometry width="50" height="50" relative="1" as="geometry">
                        <mxPoint x="479" y="319" as="sourcePoint"/>
                        <mxPoint x="379" y="299" as="targetPoint"/>
                    </mxGeometry>
                </mxCell>
                <mxCell id="5" value="API Rest" style="endArrow=classic;html=1;exitX=0.75;exitY=1;exitDx=0;exitDy=0;startArrow=classic;startFill=1;entryX=0.25;entryY=0;entryDx=0;entryDy=0;" edge="1" parent="1" source="3" target="10">
                    <mxGeometry width="50" height="50" relative="1" as="geometry">
                        <mxPoint x="389" y="149" as="sourcePoint"/>
                        <mxPoint x="459" y="299" as="targetPoint"/>
                    </mxGeometry>
                </mxCell>
                <mxCell id="7" value="NestJS" style="text;html=1;strokeColor=none;fillColor=none;align=center;verticalAlign=middle;whiteSpace=wrap;rounded=0;dashed=1;" vertex="1" parent="1">
                    <mxGeometry x="205" y="266" width="60" height="30" as="geometry"/>
                </mxCell>
                <mxCell id="9" value="Gsteway&lt;br&gt;(websock.io)" style="rounded=0;whiteSpace=wrap;html=1;" vertex="1" parent="1">
                    <mxGeometry x="287" y="304" width="120" height="60" as="geometry"/>
                </mxCell>
                <mxCell id="10" value="Module&lt;br&gt;(Controller)" style="rounded=0;whiteSpace=wrap;html=1;" vertex="1" parent="1">
                    <mxGeometry x="428" y="304" width="120" height="60" as="geometry"/>
                </mxCell>
                <mxCell id="12" value="" style="endArrow=classic;html=1;exitX=0.75;exitY=1;exitDx=0;exitDy=0;entryX=1;entryY=0.5;entryDx=0;entryDy=0;" edge="1" parent="1" source="10" target="13">
                    <mxGeometry width="50" height="50" relative="1" as="geometry">
                        <mxPoint x="469" y="379" as="sourcePoint"/>
                        <mxPoint x="739" y="449" as="targetPoint"/>
                        <Array as="points">
                            <mxPoint x="519" y="429"/>
                        </Array>
                    </mxGeometry>
                </mxCell>
                <mxCell id="13" value="Event" style="shape=process;whiteSpace=wrap;html=1;backgroundOutline=1;" vertex="1" parent="1">
                    <mxGeometry x="359" y="399" width="120" height="60" as="geometry"/>
                </mxCell>
                <mxCell id="14" value="" style="endArrow=classic;html=1;exitX=0;exitY=0.5;exitDx=0;exitDy=0;entryX=0.25;entryY=1;entryDx=0;entryDy=0;" edge="1" parent="1" source="13" target="9">
                    <mxGeometry width="50" height="50" relative="1" as="geometry">
                        <mxPoint x="469" y="399" as="sourcePoint"/>
                        <mxPoint x="519" y="349" as="targetPoint"/>
                        <Array as="points">
                            <mxPoint x="317" y="429"/>
                        </Array>
                    </mxGeometry>
                </mxCell>
            </root>
        </mxGraphModel>
    </diagram>
</mxfile>